<svg xmlns="http://www.w3.org/2000/svg" xmlns:xlink="http://www.w3.org/1999/xlink" width="235.779" height="266.213" viewBox="0 0 235.779 266.213">
  <defs>
    <linearGradient id="linear-gradient" x1="0.5" x2="0.5" y2="1" gradientUnits="objectBoundingBox">
      <stop offset="0"/>
      <stop offset="1" stop-color="#6a6767" stop-opacity="0.31"/>
    </linearGradient>
    <linearGradient id="linear-gradient-2" x1="0.5" x2="0.5" y2="1" gradientUnits="objectBoundingBox">
      <stop offset="0"/>
      <stop offset="0.047" stop-color="#2b2b2b"/>
      <stop offset="1" stop-color="#6a6767"/>
    </linearGradient>
    <linearGradient id="linear-gradient-3" x1="0.5" x2="0.5" y2="1" gradientUnits="objectBoundingBox">
      <stop offset="0" stop-color="#0314af"/>
      <stop offset="1" stop-color="#01084a"/>
    </linearGradient>
    <linearGradient id="linear-gradient-4" x1="0.31" y1="0.5" x2="1" y2="0.714" gradientUnits="objectBoundingBox">
      <stop offset="0"/>
      <stop offset="1" stop-color="#020f88"/>
    </linearGradient>
    <linearGradient id="linear-gradient-5" x1="0.744" y1="0.303" x2="0.5" y2="1" gradientUnits="objectBoundingBox">
      <stop offset="0" stop-color="#0c0c0c"/>
      <stop offset="1" stop-color="#5c5c5c"/>
    </linearGradient>
    <linearGradient id="linear-gradient-6" x1="0.5" x2="0.5" y2="1" gradientUnits="objectBoundingBox">
      <stop offset="0" stop-color="#010a5d"/>
      <stop offset="1" stop-color="#02094a"/>
    </linearGradient>
  </defs>
  <g id="Grupo_4" data-name="Grupo 4" transform="translate(145.779 -104)">
    <g id="Grupo_2" data-name="Grupo 2" transform="translate(-253 -101)">
      <path id="Sustracción_5" data-name="Sustracción 5" d="M394.993,315.668a102.525,102.525,0,0,1-35.652-6.4,101.766,101.766,0,0,1-17.357-8.4,100.333,100.333,0,0,1-15.372-11.489,98.313,98.313,0,0,1-12.9-14.28A97.073,97.073,0,0,1,296.374,200a98.267,98.267,0,0,1,5.335-18.49c.895-2.247,1.889-4.5,2.954-6.69a15.243,15.243,0,0,0,1.575.082,14.272,14.272,0,0,0,14.5-14,13.611,13.611,0,0,0-2.163-7.359c1.236-1.453,2.525-2.884,3.831-4.255a102.689,102.689,0,0,1,51.492-29.24,104.936,104.936,0,0,1,17.888-2.537c-45.244,19.111-70.242,66.943-59.439,113.734,10.375,44.936,50.513,76.321,97.611,76.321,1.88,0,3.788-.052,5.671-.154a105.152,105.152,0,0,1-40.636,8.255Z" transform="translate(-156.739 111.097)" fill="url(#linear-gradient)"/>
      <path id="Sustracción_2" data-name="Sustracción 2" d="M101.5,198a102.69,102.69,0,0,1-56.75-16.908A101.725,101.725,0,0,1,29.729,169a100.3,100.3,0,0,1-12.394-14.652,98.27,98.27,0,0,1-9.358-16.817,97.074,97.074,0,0,1,0-77.07,98.27,98.27,0,0,1,9.358-16.817A100.3,100.3,0,0,1,29.729,29,101.842,101.842,0,0,1,61.992,7.78,103.069,103.069,0,0,1,101.5,0a104.988,104.988,0,0,1,18,1.552C71.117,10,36,50.978,36,99s35.117,89,83.5,97.448A104.988,104.988,0,0,1,101.5,198Z" transform="matrix(0.809, -0.588, 0.588, 0.809, 107.221, 311.028)" fill="url(#linear-gradient-2)"/>
      <path id="Sustracción_4" data-name="Sustracción 4" d="M353.1,299.743a101.908,101.908,0,0,1-34.161-5.9,103.062,103.062,0,0,1-34.566-20.655,104.978,104.978,0,0,1-12.338-13.2,102.075,102.075,0,0,0,54.274,15.732A98.251,98.251,0,0,0,399.3,243.444c32.133-35.687,33.459-89.641,3.153-128.291a104.988,104.988,0,0,1,14.415,10.891,102.691,102.691,0,0,1,30.859,50.539,101,101,0,0,1,3.169,30.381,14.073,14.073,0,0,0-11,13.589,13.864,13.864,0,0,0,6.455,11.649c-.151.472-.3.928-.444,1.357a97.074,97.074,0,0,1-51.571,57.274,98.162,98.162,0,0,1-18.207,6.235,100.333,100.333,0,0,1-19.014,2.6C355.786,299.716,354.437,299.743,353.1,299.743Z" transform="translate(-125.897 130.448)" fill="url(#linear-gradient-3)"/>
      <ellipse id="Elipse_7" data-name="Elipse 7" cx="14.5" cy="14" rx="14.5" ry="14" transform="translate(241 205)" fill="url(#linear-gradient-4)"/>
      <circle id="Elipse_10" data-name="Elipse 10" cx="9" cy="9" r="9" transform="translate(126 258)" fill="url(#linear-gradient-5)"/>
      <circle id="Elipse_11" data-name="Elipse 11" cx="7" cy="7" r="7" transform="translate(329 362)" fill="url(#linear-gradient-6)"/>
      <g id="Grupo_1" data-name="Grupo 1" transform="translate(0 -5)">
        <text id="M" transform="translate(195 344)" fill="rgba(0,0,0,0.57)" stroke="#000" stroke-width="1" font-size="89" font-family="Broadway"><tspan x="0" y="0">M</tspan></text>
        <text id="A" transform="translate(216 358)" fill="rgba(0,0,0,0.57)" stroke="#000" stroke-width="1" font-size="89" font-family="Broadway"><tspan x="0" y="0">A</tspan></text>
      </g>
    </g>
  </g>
</svg>
